<?xml version="1.0" encoding="UTF-8" standalone="no"?>
<svg width="135px" height="141px" viewBox="0 0 135 141" version="1.1" xmlns="http://www.w3.org/2000/svg" xmlns:xlink="http://www.w3.org/1999/xlink">
    <!-- Generator: Sketch 46.2 (44496) - http://www.bohemiancoding.com/sketch -->
    <title>Artboard 9 Copy</title>
    <desc>Created with Sketch.</desc>
    <defs></defs>
    <g id="Page-1" stroke="none" stroke-width="1" fill="none" fill-rule="evenodd">
        <g id="Artboard-9-Copy" fill-rule="nonzero">
            <g id="Group" transform="translate(7.000000, 7.000000)">
                <g id="Group-5">
                    <path d="M75.8537695,0.297691172 C74.3417898,0.88671246 72.8526233,1.47424612 71.3862689,2.06029277 L71.8316134,3.17459448 C73.2947017,2.58985315 74.7806195,2.00360127 76.2893661,1.41583947 L75.8537695,0.297691172 Z M66.9297451,3.86566163 C65.4257613,4.4833956 63.9473847,5.09946268 62.4946142,5.71386385 L62.9620322,6.81908801 C64.4109486,6.20631679 65.885493,5.59184665 67.3856643,4.97567857 L66.9297451,3.86566163 Z M58.0795326,7.61034259 C56.5852127,8.26250054 55.1200598,8.91276461 53.6840724,9.56113638 L54.1778887,10.6548207 C55.6092401,10.0085422 57.0697851,9.36032317 58.5595223,8.71016528 L58.0795326,7.61034259 Z M49.3112055,11.5719302 C47.8307739,12.2655392 46.3841139,12.9569633 44.971223,13.6462055 L45.497348,14.7247195 C46.9045334,14.0382606 48.3455247,13.3495458 49.8203196,12.6585778 L49.3112055,11.5719302 Z M40.6653883,15.7932287 C39.2037981,16.5386471 37.7822099,17.2814923 36.40062,18.0217695 L36.9673688,19.0795009 C38.3417288,18.3430976 39.7561351,17.6040053 41.2105838,16.8622291 L40.6653883,15.7932287 Z M32.1879883,20.3411417 C30.7529953,21.1537642 29.3668685,21.963273 28.029602,22.7696789 L28.6492814,23.7972962 C29.9770382,22.996625 31.3537151,22.1926349 32.7793058,21.3853368 L32.1879883,20.3411417 Z M23.9350606,25.3279623 C22.5406622,26.2321112 21.2086222,27.1323543 19.938931,28.028717 L20.6310076,29.0090384 C21.8875791,28.1219377 23.2065546,27.2305241 24.5879244,26.3348232 L23.9350606,25.3279623 Z M16.0542572,30.9108064 C14.7295504,31.946876 13.4895409,32.977821 12.3342216,34.0037122 L13.1309985,34.9010118 C14.2672383,33.8920626 15.4880865,32.8770484 16.7935362,31.85604 L16.0542572,30.9108064 Z M8.84288582,37.3564478 C7.66016533,38.5941521 6.60302528,39.8248215 5.67155992,41.0486628 L6.62644839,41.7754282 C7.52996263,40.5883116 8.55793702,39.3915954 9.71046581,38.1854864 L8.84288582,37.3564478 Z M3.00027436,45.1626196 C2.17827685,46.6960096 1.55839529,48.2193931 1.14154424,49.7326543 L2.29845295,50.0513426 C2.69088502,48.6267277 3.27706108,47.1861768 4.05789566,45.7295739 L3.00027436,45.1626196 Z M0.504890555,54.7016755 C0.537781998,56.1501887 0.758947606,57.7914981 1.23858129,59.5902326 L2.39806784,59.2810548 C1.94382698,57.577549 1.73537525,56.0305916 1.70488242,54.6879549 L0.504890555,54.7016755 Z M2.95532407,64.1932252 C3.63722396,65.6095169 4.46173693,67.0191091 5.43916424,68.4141104 L6.42193585,67.7255177 C5.48197556,66.3839899 4.6903426,65.0306096 4.03653154,63.6726578 L2.95532407,64.1932252 Z M8.52062934,72.2043428 C9.58864069,73.3499292 10.7641944,74.4694297 12.0513761,75.5597307 L12.8269823,74.6440698 C11.5755325,73.5840353 10.434094,72.4970233 9.39835516,71.3860535 L8.52062934,72.2043428 Z M53.1740639,92.41738 C54.7522081,92.7295338 56.3336199,93.0168553 57.9140122,93.278546 L58.110046,92.0946664 C56.541974,91.8350158 54.9728343,91.549924 53.4069102,91.2401874 L53.1740639,92.41738 Z M62.6834783,93.9906695 C64.2888187,94.2040704 65.8864343,94.3896856 67.4719537,94.5469103 L67.5903684,93.3527672 C66.0181778,93.1968641 64.4338,93.0127869 62.8416055,92.8011335 L62.6834783,93.9906695 Z M72.286907,94.9391267 C73.9154529,95.0423214 75.5236996,95.1136224 77.1071463,95.1526272 L77.1366967,93.9529911 C75.5688502,93.9143706 73.9760466,93.8437543 72.3627942,93.7415287 L72.286907,94.9391267 Z M81.9303987,95.1696687 C83.5773728,95.139319 85.187933,95.0709939 86.7573468,94.9645095 L86.6761138,93.7672621 C85.126666,93.8723918 83.5358049,93.9398813 81.9082894,93.9698724 L81.9303987,95.1696687 Z M91.57395,94.5008326 C93.2291187,94.2912799 94.8242064,94.0339083 96.3540278,93.7287774 L96.1193049,92.5519575 C94.6178958,92.8514214 93.0507867,93.1042785 91.4232271,93.3103359 L91.57395,94.5008326 Z M101.075891,92.5730769 C102.707768,92.0913476 104.238831,91.543899 105.662902,90.9310296 L105.188529,89.8287724 C103.809617,90.4222072 102.323424,90.9536122 100.736145,91.4221759 L101.075891,92.5730769 Z M110.01284,88.6412239 C111.471174,87.7028018 112.752958,86.6661586 113.849539,85.5320604 L112.986861,84.6979215 C111.956476,85.7635592 110.746419,86.7421938 109.36348,87.6321 L110.01284,88.6412239 Z M116.762276,81.4791252 C117.509793,80.0043089 118.019326,78.4198174 118.283836,76.7293639 L117.098262,76.543854 C116.853138,78.1104117 116.382358,79.5743937 115.691914,80.9366071 L116.762276,81.4791252 Z M118.34368,71.713417 C118.097781,69.9910145 117.557652,68.4010441 116.736268,66.9539326 L115.69266,67.5462871 C116.439578,68.8622025 116.930968,70.3087035 117.155725,71.8830157 L118.34368,71.713417 Z M113.484573,63.0905395 C112.282736,62.0766557 110.881978,61.1910348 109.301033,60.4380552 L108.78503,61.5214481 C110.27628,62.231708 111.590327,63.0625062 112.710803,64.0077519 L113.484573,63.0905395 Z M104.707899,58.7583369 C103.205056,58.3479274 101.605763,58.0272071 99.9252005,57.797557 L99.7627295,58.9865074 C101.39268,59.2092414 102.940738,59.5196872 104.391769,59.9159472 L104.707899,58.7583369 Z M95.0455336,57.3947201 C94.1679236,57.3662186 93.2767154,57.3593846 92.3741039,57.3741659 L92.3937526,58.574005 C93.2769784,58.5595412 94.1486522,58.5662254 95.0065826,58.5940877 L95.0455336,57.3947201 Z M41.4776696,92.211043 C41.3057739,93.91671 41.3472007,95.568257 41.6025425,97.1645106 L42.7874781,96.9749646 C42.5487903,95.4828226 42.5099741,93.9353483 42.6716218,92.3313684 L41.4776696,92.211043 Z M43.0695225,101.911492 C43.7504005,103.360127 44.6355042,104.751731 45.7237761,106.085923 L46.6536648,105.327433 C45.6262293,104.067825 44.7938753,102.759156 44.1555453,101.401046 L43.0695225,101.911492 Z M49.1811135,109.57074 C50.3613333,110.568189 51.6748019,111.52816 53.1213903,112.450917 L53.7667358,111.439221 C52.3641579,110.544538 51.0938562,109.616116 49.9557016,108.654218 L49.1811135,109.57074 Z M57.397935,114.876141 C58.7762847,115.574292 60.2435785,116.24797 61.7998381,116.897263 L62.261893,115.789786 C60.7322271,115.151588 59.2916427,114.490173 57.9401613,113.805631 L57.397935,114.876141 Z M66.3786213,118.647682 C67.8445976,119.161855 69.3752081,119.658461 70.9704712,120.137528 L71.3156112,118.988233 C69.7375203,118.514323 68.224239,118.02334 66.775786,117.515313 L66.3786213,118.647682 Z M75.5022542,121.406029 C75.7116257,121.460545 75.7116257,121.460545 75.92185,121.514829 L76.2212855,120.352789 C76.0128223,120.29896 76.0128223,120.29896 75.8052235,120.244904 L75.5022542,121.406029 Z" id="Path-70" fill="#AFB5BB"></path>
                    <path d="M33.5061224,47.8392157 L69.6571429,47.8392157 C74.2963348,47.8392157 78.0571429,51.6000238 78.0571429,56.2392157 L78.0571429,76.7707242 L82.1339546,81.1524894 L82.1339546,76.3707281 L85.3102041,76.3707281 C88.6239126,76.3707281 91.3102041,73.6844366 91.3102041,70.3707281 L91.3102041,45.4745098 C91.3102041,42.1608013 88.6239126,39.4745098 85.3102041,39.4745098 L39.5061224,39.4745098 C36.1924139,39.4745098 33.5061224,42.1608013 33.5061224,45.4745098 L33.5061224,47.8392157 Z M31.1061224,47.8392157 L31.1061224,45.4745098 C31.1061224,40.8353179 34.8669306,37.0745098 39.5061224,37.0745098 L85.3102041,37.0745098 C89.949396,37.0745098 93.7102041,40.8353179 93.7102041,45.4745098 L93.7102041,70.3707281 C93.7102041,75.00992 89.949396,78.7707281 85.3102041,78.7707281 L84.5339546,78.7707281 L84.5339546,81.6610617 C84.5339546,82.2720608 84.2798584,82.8555399 83.8325312,83.2717349 C82.942981,84.0993759 81.5509225,84.0491886 80.7232814,83.1596384 L78.0571429,80.2940675 L78.0571429,82.1715746 C78.0571429,86.8107665 74.2963348,90.5715746 69.6571429,90.5715746 L35.2563863,90.5715746 L28.2494663,96.4939438 C27.3215033,97.278274 25.9334154,97.1618367 25.1490851,96.2338737 C24.8134555,95.836781 24.6293108,95.3336507 24.6293108,94.8137181 L24.6293108,90.5715746 L23.8530612,90.5715746 C19.2138693,90.5715746 15.4530612,86.8107665 15.4530612,82.1715746 L15.4530612,56.2392157 C15.4530612,51.6000238 19.2138693,47.8392157 23.8530612,47.8392157 L31.1061224,47.8392157 Z M34.3779907,88.1715746 L69.6571429,88.1715746 C72.9708514,88.1715746 75.6571429,85.4852831 75.6571429,82.1715746 L75.6571429,56.2392157 C75.6571429,52.9255072 72.9708514,50.2392157 69.6571429,50.2392157 L23.8530612,50.2392157 C20.5393527,50.2392157 17.8530612,52.9255072 17.8530612,56.2392157 L17.8530612,82.1715746 C17.8530612,85.4852831 20.5393527,88.1715746 23.8530612,88.1715746 L27.0293108,88.1715746 L27.0293108,94.3828051 L34.3779907,88.1715746 Z M26.059667,70.5686275 C25.3990912,70.5686275 24.8635886,70.0331249 24.8635886,69.372549 C24.8635886,68.7119731 25.3990912,68.1764706 26.059667,68.1764706 L66.4085329,68.1764706 C67.0691088,68.1764706 67.6046114,68.7119731 67.6046114,69.372549 C67.6046114,70.0331249 67.0691088,70.5686275 66.4085329,70.5686275 L66.4085329,70.5686275 L26.059667,70.5686275 Z M25.9341403,80.1372549 C25.2735645,80.1372549 24.7380619,79.6017523 24.7380619,78.9411765 C24.7380619,78.2806006 25.2735645,77.745098 25.9341403,77.745098 L46.3145636,77.745098 C46.9751395,77.745098 47.5106421,78.2806006 47.5106421,78.9411765 C47.5106421,79.6017523 46.9751395,80.1372549 46.3145636,80.1372549 L25.9341403,80.1372549 Z M26.059667,61 C25.3990912,61 24.8635886,60.4644974 24.8635886,59.8039216 C24.8635886,59.1433457 25.3990912,58.6078431 26.059667,58.6078431 L66.4085329,58.6078431 C67.0691088,58.6078431 67.6046114,59.1433457 67.6046114,59.8039216 C67.6046114,60.4644974 67.0691088,61 66.4085329,61 L26.059667,61 Z" id="Combined-Shape" fill="#4B4E52"></path>
                </g>
            </g>
        </g>
    </g>
</svg>